<?xml version="1.0" standalone="no"?>
<!DOCTYPE svg PUBLIC "-//W3C//DTD SVG 20010904//EN"
 "http://www.w3.org/TR/2001/REC-SVG-20010904/DTD/svg10.dtd">
<svg version="1.0" xmlns="http://www.w3.org/2000/svg"
 width="840.000000pt" height="840.000000pt" viewBox="0 0 840.000000 840.000000"
 preserveAspectRatio="xMidYMid meet">
<metadata>
Created by potrace 1.11, written by Peter Selinger 2001-2013
</metadata>
<g transform="translate(0.000000,840.000000) scale(0.100000,-0.100000)"
fill="#000000" stroke="none">
<path d="M2645 8282 c-71 -13 -145 -36 -203 -64 -92 -43 -215 -167 -260 -260
-57 -118 -64 -171 -65 -488 -1 -160 -5 -288 -11 -291 -12 -9 -12 -299 0 -308
13 -8 12 -264 0 -272 -12 -9 -12 -579 0 -587 13 -9 12 -164 -1 -169 -6 -2 -9
-40 -8 -93 1 -87 -2 -96 -29 -91 -5 0 -8 -3 -8 -9 0 -5 -7 -10 -16 -10 -8 0
-12 -5 -9 -11 4 -6 1 -9 -6 -8 -16 3 -52 -11 -59 -23 -3 -4 -17 -9 -30 -12
-14 -2 -24 -9 -22 -16 1 -6 -2 -9 -8 -5 -6 4 -17 1 -25 -5 -8 -7 -15 -9 -15
-4 0 4 -7 -1 -16 -12 -8 -10 -12 -12 -8 -4 7 13 5 13 -8 2 -30 -24 -111 -61
-121 -55 -6 3 -7 1 -3 -5 4 -7 1 -12 -8 -12 -8 0 -22 -7 -30 -16 -9 -8 -16
-12 -16 -8 0 3 -7 1 -15 -6 -8 -7 -15 -9 -15 -6 0 4 -7 0 -16 -8 -8 -9 -20
-14 -25 -11 -5 4 -9 1 -9 -6 0 -7 -3 -10 -6 -6 -4 3 -25 -14 -48 -38 -58 -62
-66 -72 -59 -79 3 -3 1 -12 -5 -19 -16 -19 -9 -121 9 -143 9 -12 9 -15 1 -10
-11 7 23 -51 47 -80 6 -7 7 -15 4 -18 -4 -3 1 -6 10 -6 10 0 17 -7 17 -15 0
-8 7 -15 15 -15 7 0 19 -8 24 -17 6 -10 11 -13 11 -8 0 6 4 5 8 -2 4 -6 14
-13 22 -15 8 -2 21 -10 28 -18 12 -13 13 -13 6 0 -6 12 -4 13 7 3 7 -7 28 -13
46 -13 20 0 33 -5 33 -12 0 -10 2 -10 9 0 9 14 32 13 43 -3 5 -6 8 -3 8 6 0
12 7 15 26 11 14 -2 29 0 33 7 4 6 23 13 42 16 18 2 39 12 46 21 7 10 13 16
14 13 6 -26 4 -61 -4 -66 -5 -3 -3 -9 4 -14 9 -6 10 -9 2 -9 -8 0 -9 -9 -3
-29 4 -15 4 -34 0 -41 -4 -7 -4 -25 0 -40 4 -15 4 -33 -1 -41 -5 -8 -3 -16 4
-21 9 -6 8 -8 -2 -8 -11 0 -11 -3 -1 -15 7 -9 8 -15 2 -15 -12 0 -10 -33 3
-42 6 -5 5 -8 -4 -8 -11 0 -11 -3 -1 -15 7 -8 8 -15 3 -15 -9 0 -8 -62 1 -87
3 -7 2 -13 -2 -13 -6 0 -7 -182 -1 -200 1 -3 0 -9 -1 -15 -1 -5 -2 -25 -2 -42
0 -22 -4 -31 -11 -26 -7 3 -3 -3 7 -15 13 -15 15 -22 6 -22 -9 0 -10 -3 -1
-13 6 -8 8 -17 4 -20 -9 -10 -10 -59 -1 -79 5 -10 4 -20 -2 -23 -8 -5 -7 -12
2 -23 7 -9 8 -13 2 -9 -11 7 -11 -63 0 -82 4 -6 3 -11 -3 -11 -7 0 -7 -8 0
-26 9 -25 8 -26 -7 -13 -16 13 -16 12 -7 -6 6 -11 10 -46 9 -78 0 -31 4 -59 9
-61 6 -3 4 -5 -3 -5 -7 -1 -10 -6 -6 -12 3 -6 0 -15 -7 -20 -8 -5 -9 -9 -3 -9
6 0 11 -14 12 -30 0 -21 -3 -28 -11 -24 -8 5 -8 3 1 -7 16 -17 16 -32 0 -24
-7 4 -4 -1 6 -9 11 -9 15 -16 9 -16 -13 0 -12 -18 1 -39 6 -9 5 -12 -2 -7 -6
3 -13 2 -17 -4 -3 -5 -2 -10 4 -10 5 0 9 -13 9 -30 -1 -16 -5 -30 -10 -30 -4
0 -8 -5 -8 -11 0 -5 4 -8 9 -5 11 7 11 -46 0 -60 -12 -15 0 -46 14 -37 6 4 7
1 1 -8 -4 -8 -9 -25 -9 -39 0 -14 -4 -31 -9 -38 -4 -7 -4 -18 1 -25 11 -14 11
-27 -1 -46 -6 -10 -5 -12 2 -7 8 5 12 0 12 -13 0 -10 -6 -22 -12 -24 -10 -4
-9 -6 1 -6 11 -1 11 -4 0 -18 -10 -11 -10 -14 -1 -9 8 5 11 1 8 -16 -2 -13 2
-29 8 -37 8 -11 8 -13 -1 -8 -6 4 -14 3 -18 -3 -3 -5 -2 -10 4 -10 5 0 8 -8 6
-18 -1 -9 3 -23 9 -31 8 -11 8 -13 -1 -8 -6 4 -14 3 -17 -2 -3 -5 1 -12 10
-15 15 -6 15 -8 -1 -26 -10 -11 -13 -20 -7 -20 6 0 9 -10 7 -22 -3 -12 0 -27
6 -35 8 -9 7 -14 -5 -19 -9 -3 -13 -10 -10 -15 3 -5 11 -6 17 -2 7 4 4 -6 -7
-21 -10 -16 -13 -25 -7 -22 15 10 14 -7 -1 -23 -11 -11 -10 -12 1 -6 11 6 13
4 8 -8 -3 -9 -2 -19 4 -23 6 -4 4 -13 -7 -25 -9 -10 -13 -19 -7 -19 5 0 10 -7
10 -15 0 -8 -5 -15 -11 -15 -7 0 -7 -3 -1 -8 13 -10 14 -62 1 -62 -6 0 -4 -5
4 -10 13 -9 13 -10 0 -10 -13 0 -13 -1 0 -10 13 -8 13 -13 2 -31 -8 -11 -9
-18 -3 -14 15 9 14 -8 -1 -24 -10 -11 -10 -13 0 -7 15 9 16 -10 1 -19 -7 -5
-5 -13 6 -25 10 -11 12 -20 6 -24 -6 -4 -7 -14 -4 -24 6 -15 5 -15 -10 -3 -10
7 -17 9 -17 3 0 -6 -12 -9 -27 -7 -16 2 -34 -2 -42 -9 -11 -8 -13 -8 -8 0 4 8
-5 13 -27 16 -19 2 -32 0 -29 -5 3 -5 -4 -6 -16 -2 -14 4 -21 2 -21 -7 0 -9
-3 -9 -8 -2 -8 13 -111 13 -131 0 -10 -6 -12 -6 -7 2 4 7 1 12 -8 12 -9 0 -16
-5 -16 -12 0 -6 -6 -4 -13 7 -8 11 -16 14 -20 8 -4 -6 -18 -9 -32 -8 -15 2
-23 -1 -19 -7 4 -6 -6 -8 -24 -5 -23 4 -29 2 -25 -9 3 -9 -2 -12 -16 -9 -12 2
-21 0 -21 -6 0 -5 -7 -9 -15 -9 -9 0 -18 -7 -21 -15 -4 -8 -10 -12 -15 -9 -5
3 -9 0 -9 -6 0 -6 -4 -9 -9 -6 -5 3 -12 -6 -15 -19 -4 -14 -10 -23 -15 -21 -5
3 -8 -2 -7 -12 0 -9 -5 -16 -11 -15 -7 2 -12 0 -12 -5 1 -4 0 -9 -1 -12 -3 -7
-11 -73 -10 -87 3 -47 6 -63 13 -63 4 0 7 -7 7 -15 0 -8 5 -15 11 -15 5 0 8
-4 4 -9 -3 -6 5 -19 17 -30 12 -12 18 -21 13 -21 -15 0 62 -50 103 -67 20 -8
48 -17 61 -20 14 -2 32 -10 40 -16 12 -9 13 -9 7 1 -5 8 0 12 18 12 14 0 28
-5 31 -10 5 -8 12 -7 22 1 11 10 19 10 33 1 11 -6 22 -8 24 -3 3 5 46 8 95 7
50 -1 88 1 85 5 -2 4 5 5 16 2 11 -3 17 -10 13 -16 -4 -6 -1 -7 8 -1 21 13
140 14 133 0 -3 -6 1 -3 8 6 9 11 19 14 28 8 8 -5 18 -6 22 -4 4 3 9 2 9 -3 1
-4 2 -282 4 -618 1 -335 5 -626 9 -645 29 -147 100 -265 223 -372 58 -49 183
-109 283 -134 46 -11 309 -13 1535 -11 l1480 2 80 29 c189 67 289 145 373 291
13 22 25 47 27 55 2 8 11 35 21 60 17 41 18 100 21 695 2 358 5 656 8 663 2 6
12 12 20 12 9 0 13 -4 10 -10 -3 -6 1 -7 9 -4 9 3 14 10 11 14 -8 12 39 -2 47
-14 6 -8 8 -8 8 0 0 18 38 24 51 8 7 -9 16 -11 23 -5 16 13 206 10 200 -3 -3
-6 0 -4 8 4 11 13 31 17 48 10 19 -7 50 -5 50 4 0 7 3 7 8 1 10 -14 32 -17 32
-4 0 5 5 7 11 3 13 -8 127 -3 149 6 3 1 9 2 13 1 4 -1 10 6 13 14 5 11 10 12
26 4 16 -9 19 -8 13 2 -6 9 -3 11 9 6 10 -4 15 -3 11 3 -3 6 -1 10 4 10 18 0
61 42 54 53 -3 6 -1 7 5 3 6 -3 13 -2 17 4 3 5 1 10 -5 10 -6 0 -2 13 9 29 12
16 21 39 21 50 0 12 5 21 11 21 8 0 8 5 -1 15 -10 12 -10 15 1 15 12 0 12 2 0
9 -8 5 -11 16 -8 25 3 8 2 18 -4 21 -5 4 -7 11 -4 16 4 5 0 12 -9 15 -8 3 -13
14 -11 26 3 11 2 18 -2 15 -7 -8 -33 18 -33 32 0 6 -7 11 -17 11 -9 0 -13 3
-10 6 10 10 -83 54 -113 54 -15 0 -30 3 -34 7 -11 11 -158 11 -180 0 -12 -6
-16 -6 -12 1 3 5 -5 12 -19 14 -13 3 -22 1 -19 -3 8 -14 -20 -11 -35 3 -11 11
-13 10 -7 0 5 -9 -2 -11 -28 -6 -23 3 -36 1 -36 -6 0 -6 -5 -8 -10 -5 -6 4 -8
10 -5 15 3 5 -8 5 -24 0 -19 -5 -35 -4 -45 3 -14 10 -14 15 -2 38 9 18 10 32
4 44 -7 11 -6 21 1 28 8 8 6 15 -5 28 -12 13 -12 19 -3 25 8 5 10 3 4 -6 -5
-9 -4 -11 4 -6 6 4 8 13 4 19 -4 7 -9 20 -10 31 -3 16 -1 17 14 5 17 -13 17
-12 2 6 -9 11 -15 28 -14 38 2 9 -2 17 -8 17 -7 0 -4 5 7 11 15 9 16 13 5 20
-12 8 -12 10 0 18 8 5 9 11 3 15 -12 7 -11 24 2 45 6 10 5 12 -2 7 -16 -9 -15
7 0 22 7 7 8 12 2 12 -6 0 -11 7 -11 15 0 10 6 14 16 10 14 -4 14 -4 1 8 -17
14 -26 42 -10 32 5 -3 10 1 10 9 0 9 -6 16 -12 16 -8 0 -5 7 6 15 18 13 18 15
3 15 -15 0 -16 3 -7 21 9 15 8 24 -2 37 -9 11 -10 14 0 8 7 -4 12 -1 12 8 0 9
-5 16 -11 16 -8 0 -8 4 0 14 10 11 10 20 0 38 -12 22 -11 22 6 8 11 -9 16 -10
11 -3 -13 23 -15 53 -3 53 7 0 3 7 -7 15 -18 14 -18 15 -2 15 11 0 15 4 9 12
-10 17 -10 78 0 78 5 0 5 5 1 12 -10 16 -12 78 -3 78 4 0 3 16 -1 35 -7 29 -5
35 9 35 10 0 12 3 5 8 -19 13 -25 42 -8 42 14 0 14 2 0 16 -18 17 -21 28 -6
19 12 -8 8 48 -5 57 -6 5 -6 8 2 8 12 0 12 17 0 38 -5 6 -4 12 2 12 5 0 8 20
7 45 -1 27 2 45 8 45 8 0 7 3 0 8 -13 8 -14 42 -2 42 5 0 6 6 1 13 -13 21 -14
49 -2 63 6 8 7 14 2 14 -5 0 -10 7 -10 15 0 8 4 15 9 15 4 0 8 5 8 11 0 5 -4
8 -9 5 -11 -7 -9 13 2 32 5 7 3 12 -4 12 -8 0 -8 4 2 16 10 13 10 17 -2 25
-12 8 -12 10 1 19 13 8 13 11 1 19 -8 5 -10 14 -5 22 13 22 14 60 1 52 -7 -4
-4 6 7 21 10 16 12 25 5 21 -9 -6 -11 -3 -6 8 3 9 2 19 -4 23 -6 4 -7 10 0 17
5 7 8 36 5 65 -2 39 0 51 9 45 9 -5 9 -3 0 9 -7 8 -10 18 -6 21 3 4 0 14 -8
24 -10 12 -10 15 -1 9 10 -6 12 2 9 36 -2 23 0 51 5 60 5 10 4 19 -2 23 -5 3
-10 11 -10 16 0 6 5 7 11 3 8 -4 8 0 0 15 -7 11 -8 21 -4 21 4 0 7 17 7 37 -1
21 4 44 10 52 8 11 8 13 -1 7 -17 -10 -17 16 0 33 10 11 9 13 -5 8 -10 -4 -18
-2 -18 3 0 6 4 10 10 10 5 0 6 7 3 17 -5 11 -3 14 6 8 7 -4 5 5 -5 21 -12 17
-14 25 -5 20 10 -7 12 -3 6 14 -6 17 -4 21 6 14 12 -6 12 -5 1 8 -10 12 -10
17 -1 20 8 3 9 9 4 19 -14 22 -15 43 -2 51 9 6 9 8 -1 8 -8 0 -10 5 -5 13 13
21 12 38 -3 44 -12 4 -12 8 3 20 10 8 13 12 7 9 -6 -3 -11 1 -11 8 0 8 8 11
19 8 10 -2 18 -9 18 -16 0 -6 5 -4 10 4 8 13 10 12 10 -3 0 -10 5 -15 10 -12
6 3 10 2 10 -4 0 -5 9 -8 20 -6 11 2 20 -1 20 -7 0 -6 7 -5 17 3 9 8 14 9 10
2 -7 -12 30 -30 40 -19 3 3 15 1 26 -5 15 -8 18 -8 12 1 -5 9 -2 10 12 6 25
-8 55 3 47 16 -4 6 4 4 17 -2 17 -10 24 -10 27 -1 2 6 7 9 12 6 4 -2 19 6 34
20 14 13 26 21 26 18 0 -3 7 0 15 7 8 6 19 9 24 6 5 -4 13 -1 17 5 4 8 3 9 -4
5 -17 -10 -15 10 3 27 8 8 12 17 9 20 -3 3 3 8 14 11 11 4 22 19 25 35 3 16
13 36 22 45 9 9 12 16 7 16 -5 0 -9 7 -9 15 0 8 3 12 7 10 11 -7 6 59 -5 68
-6 4 -5 10 4 16 11 7 9 10 -9 16 -12 4 -19 10 -14 14 11 8 17 34 7 28 -5 -3
-14 1 -21 9 -7 8 -10 14 -7 14 3 0 -3 8 -12 18 -10 11 -21 17 -25 15 -4 -2
-10 6 -13 18 -6 17 -9 19 -16 8 -5 -9 -9 -9 -9 -2 0 13 -64 53 -86 53 -8 0
-13 4 -10 8 2 4 -5 9 -17 9 -12 1 -26 8 -32 16 -5 8 -16 12 -22 10 -7 -3 -13
1 -13 7 0 7 -6 10 -14 7 -8 -3 -17 1 -20 9 -3 8 -15 14 -26 14 -11 0 -23 7
-26 15 -4 8 -10 12 -16 9 -5 -3 -21 5 -35 17 -15 13 -23 18 -19 12 4 -7 2 -13
-3 -13 -6 0 -11 5 -11 10 0 6 -7 10 -16 10 -10 0 -14 6 -10 15 3 8 1 15 -5 15
-6 0 -8 9 -4 21 4 13 3 19 -2 16 -5 -4 -10 0 -10 8 0 8 3 15 7 15 4 0 6 12 6
28 -1 15 2 32 7 39 4 6 3 14 -4 19 -7 4 -9 3 -6 -3 3 -5 0 -10 -8 -10 -13 0
-12 4 2 19 9 10 13 18 8 18 -4 0 -1 8 6 17 10 11 10 14 2 9 -16 -9 -13 35 2
46 6 5 6 8 -2 8 -7 0 -9 11 -6 31 3 24 2 29 -9 23 -10 -6 -10 -4 1 9 7 9 18
14 25 10 6 -3 2 4 -9 16 -21 24 -21 27 -2 50 9 12 9 13 0 7 -16 -9 -17 6 -1
22 8 8 8 12 1 12 -6 0 -13 7 -16 14 -4 10 -1 13 7 10 7 -3 13 2 13 10 0 8 -4
13 -8 11 -4 -3 -5 4 -2 15 3 11 10 17 17 13 6 -4 5 1 -3 10 -7 9 -10 17 -6 17
4 0 2 6 -4 14 -13 15 -4 49 10 40 5 -3 6 2 3 10 -3 9 -9 16 -13 16 -9 0 -7 28
4 54 5 12 3 21 -6 27 -11 7 -11 9 3 9 11 0 15 5 12 15 -4 8 -11 12 -18 9 -6
-3 -1 3 11 14 12 11 20 22 17 25 -3 3 3 4 13 3 11 0 17 5 15 13 -2 11 0 12 11
3 18 -15 69 7 62 26 -3 7 -1 11 3 8 5 -3 16 4 25 14 8 10 12 20 6 22 -5 2 2
16 16 32 16 18 23 36 19 48 -3 10 0 18 6 18 8 0 10 9 6 25 -4 17 -2 25 6 25
10 0 9 3 -1 9 -7 5 -11 13 -7 19 3 6 2 13 -4 17 -5 3 -10 15 -10 25 0 10 -4
20 -9 22 -5 2 -11 10 -13 18 -3 16 -50 65 -83 86 -52 33 -121 47 -242 49 -67
0 -125 4 -128 7 -3 3 -7 210 -9 459 -4 506 -5 513 -74 642 -79 147 -224 255
-400 299 -35 9 -433 12 -1537 13 -820 1 -1499 -1 -1510 -3z m-665 -5036 c0 -3
-4 -8 -10 -11 -5 -3 -10 -1 -10 4 0 6 5 11 10 11 6 0 10 -2 10 -4z m4415 -786
c3 -5 1 -10 -4 -10 -6 0 -11 5 -11 10 0 6 2 10 4 10 3 0 8 -4 11 -10z"/>
</g>
</svg>
